<svg width="1725" height="415" viewBox="0 0 1725 415" fill="none" xmlns="http://www.w3.org/2000/svg">
<path d="M207 113C209.539 103.407 216.267 87.159 209.778 77.8889C205.482 71.752 196.857 70.1652 190.056 69.6667C175.746 68.6178 160.9 70.9112 147 74.1111C131.363 77.7109 96.4444 85.7049 96.4444 107.556C96.4444 119.742 105.248 131.092 112.333 140C121.644 151.705 132.517 161.964 142.444 173.111C155.435 187.698 164.307 203.66 159.778 223.889C155.232 244.193 137.917 253.124 118.333 251.667C99.8743 250.293 79.9587 244.873 63.7778 235.667C58.7392 232.8 60.4656 231.651 64 229" stroke="black" stroke-width="14" stroke-linecap="round"/>
<path d="M255 77C243.335 106.552 235.766 138.577 228.444 169.389C222.796 193.158 218.14 217.24 214.778 241.444C213.492 250.7 208.252 271.539 215.611 279.889C219.585 284.398 229.702 278.165 233.222 276.889C252.106 270.045 270.82 266.484 290.889 265.444C301.272 264.906 311.715 265 322.111 265C323.148 265 320.037 265 319 265" stroke="black" stroke-width="14" stroke-linecap="round"/>
<path d="M215 173C233.214 173 251.459 173.315 269.667 172.778C275.294 172.612 284.337 173.497 289 170" stroke="black" stroke-width="14" stroke-linecap="round"/>
<path d="M251 71C251.623 69.1307 255.008 69.1546 256.444 69C267.552 67.8049 278.849 68.029 290 68C306.666 67.9567 323.333 68 340 68" stroke="black" stroke-width="14" stroke-linecap="round"/>
<path d="M473 75C466.534 59.297 445.552 67.3006 434 72.4444C407.765 84.1261 378.686 99.6105 359.389 121.333C341.965 140.948 339.638 167.931 344.833 192.611C349.839 216.387 359.807 240.129 374.556 259.556C378.637 264.931 386.68 275.717 394.556 276.111C406.646 276.716 420.105 268.851 431.111 264.889C439.191 261.98 447.445 259.069 456 258" stroke="black" stroke-width="14" stroke-linecap="round"/>
<path d="M513 74C511.019 114.949 508.316 156.118 504 196.889C502.947 206.837 499 217.345 499 227.333C499 236.169 501 245.036 501 254" stroke="black" stroke-width="14" stroke-linecap="round"/>
<path d="M518 74C520.934 65.9324 538.074 63.3009 545 64.6667C579.515 71.4725 549.488 125.796 537.889 139.889C534.312 144.235 528.269 152.036 522 153C521.482 153.08 520.383 152.702 520.444 153.222C521.184 159.511 530.806 173.086 533.056 176.944C545.931 199.028 559.884 220.105 576.222 239.778C576.814 240.49 584.824 251.176 586 250" stroke="black" stroke-width="14" stroke-linecap="round"/>
<path d="M609 86C609.631 106.181 609.783 126.377 610.444 146.556C611.12 167.158 612.403 187.729 614.667 208.222C616.245 222.506 617.692 237.743 622.278 251.5C624.312 257.603 636.776 249.044 639.722 247.833C652.836 242.444 665.874 239.009 680 238" stroke="black" stroke-width="14" stroke-linecap="round"/>
<path d="M612 159C627.319 153.296 643.7 151.843 659.778 149.444C663.753 148.851 670.928 149.144 673 145" stroke="black" stroke-width="14" stroke-linecap="round"/>
<path d="M596 69C613.353 69 630.663 69.3065 648 70" stroke="black" stroke-width="14" stroke-linecap="round"/>
<path d="M733 68C732.935 67.6097 731.417 64.4217 731.222 65C728.994 71.6128 729.178 78.8184 728.667 85.7778C727.085 107.292 726.182 128.746 726.333 150.333C726.54 179.734 729.317 208.627 732.556 237.778C732.748 239.514 733 241.253 733 243" stroke="black" stroke-width="14" stroke-linecap="round"/>
<path d="M670 46C694.596 46 719.122 45.6831 743.667 43.8333C757.556 42.7866 771.389 41.2628 785.222 39.6667C785.467 39.6385 791.783 38.1446 789 40" stroke="black" stroke-width="14" stroke-linecap="round"/>
<path d="M838 44C835.576 53.1591 835.464 62.9752 834.667 72.3333C832.454 98.2927 829.683 124.148 826.444 150C823.734 171.637 821.077 193.464 818 215" stroke="black" stroke-width="14" stroke-linecap="round"/>
<path d="M845 39C847.549 36.9607 851.752 36.4224 854.667 35.8889C868.926 33.2794 883.89 32.2789 898.333 33.8889C912.435 35.4608 929.961 38.8954 939.222 51C947.356 61.631 944.555 76.4067 938.333 87.2222C921.081 117.212 882.429 127.308 850.111 125C847.945 124.845 840 124.929 840 121" stroke="black" stroke-width="14" stroke-linecap="round"/>
<path d="M991 47C980.91 80.901 967.487 113.681 957.778 147.722C950.255 174.097 944.535 200.582 941.889 227.889C941.511 231.79 940.297 241.848 941.056 246.778C941.122 247.207 941.69 246.178 942.056 245.944C945.903 243.482 953.067 243.371 957.111 243C982.658 240.659 1008.37 240.42 1034 240" stroke="black" stroke-width="14" stroke-linecap="round"/>
<path d="M1066 229C1068.67 222.425 1072.23 216.009 1075.39 209.722C1087.97 184.65 1100.46 159.532 1112.56 134.222C1122.02 114.412 1131.25 94.5097 1139.78 74.2778C1141.97 69.0692 1143.85 60.8812 1147 70.5556C1160.86 113.175 1164.15 158.595 1178.44 201.222C1181.56 210.513 1186.07 219.361 1188 229" stroke="black" stroke-width="14" stroke-linecap="round"/>
<path d="M1117 160C1132.67 159.319 1148.31 159 1164 159" stroke="black" stroke-width="14" stroke-linecap="round"/>
<path d="M1227 225C1228.96 218.134 1229.43 209.857 1230.78 203C1237.66 167.862 1247.07 133.331 1257.56 99.1111C1259.78 91.8536 1265.06 75.481 1268 67C1268.87 64.5049 1268.55 58.6858 1271 59.6667C1272.18 60.1398 1272.44 61.7708 1273.06 62.8889C1274.85 66.1816 1276.52 69.5467 1278.22 72.8889C1286.87 89.8466 1293.16 102.639 1302.33 119.889C1317.66 148.709 1333.36 177.859 1353.22 203.889C1355.29 206.598 1356.7 211.325 1360.11 211.444C1362.88 211.541 1361.54 206.079 1361.89 203.333C1367.22 161.896 1370.59 119.464 1381 79" stroke="black" stroke-width="14" stroke-linecap="round"/>
<path d="M7.62811 407.428C83.5882 387.488 158.805 372.903 237.061 362.575C567.629 318.947 901.568 318.56 1234.37 323.096C1383.41 325.127 1532.96 328.017 1681.87 335.911C1693.35 336.52 1724.55 337.281 1715.35 344.179" stroke="black" stroke-width="14" stroke-linecap="round"/>
<path d="M1479.01 28.37L1502.12 143.886" stroke="black" stroke-width="14" stroke-linecap="round"/>
<path d="M1556.02 7.83389C1567.46 46.1761 1569.97 87.0056 1579.13 125.917" stroke="black" stroke-width="14" stroke-linecap="round"/>
<path d="M1453.34 154.154C1487.49 196.834 1558.63 276.801 1612.21 213.48C1636.23 185.092 1642.01 145.853 1648.44 110.515" stroke="black" stroke-width="14" stroke-linecap="round"/>
</svg>
